<svg id="Layer_1" data-name="Layer 1" xmlns="http://www.w3.org/2000/svg" viewBox="0 0 206.77 158.31"><defs><style>.cls-1{fill:#132414;}</style></defs><path class="cls-1" d="M237.45,128V149c-24.22,0-42.16-21.09-40.64-42,0-23.1,21.07-40.35,40.64-39.3v21.1c-12.67,0-19.57,10.05-19.57,19.56C217.88,120.34,226.68,127.27,237.45,128Z" transform="translate(-30.68 -29.2)"/><path class="cls-1" d="M184.51,138.37v32.31c-37.1,0-64.57-32.31-62.24-64.37,0-35.38,32.27-61.82,62.24-60.21V78.42c-19.41,0-30,15.4-30,30C154.54,126.71,168,137.32,184.51,138.37Z" transform="translate(-30.68 -29.2)"/><path class="cls-1" d="M109.92,146.47v41c-47.13,0-82-41-79.06-81.76,0-44.93,41-78.51,79.06-76.46v41c-24.66,0-38.07,19.57-38.07,38.07C71.85,131.67,89,145.15,109.92,146.47Z" transform="translate(-30.68 -29.2)"/></svg>